<?xml version="1.0" encoding="utf-8" ?><svg xmlns="http://www.w3.org/2000/svg" xmlns:xlink="http://www.w3.org/1999/xlink" width="2039" height="476" viewBox="0 0 2039 476"><path fill="#212329" transform="scale(0.99999 1.00018)" d="M26.6869 380.87L26.6869 180.951L66.2991 180.951L66.2991 223.538L59.046 228.094Q62.1146 218.238 68.7166 209.125Q75.4116 199.92 85.0822 192.946Q94.8456 185.879 106.097 181.694Q117.348 177.51 129.157 177.51Q146.267 177.51 159.192 183.275Q172.117 188.947 180.485 200.385Q188.947 211.729 192.76 228.931L186.623 227.351L189.319 220.935Q193.504 212.101 200.942 204.383Q208.381 196.572 217.866 190.435Q227.35 184.298 238.044 180.951Q248.737 177.51 258.966 177.51Q281.467 177.51 296.066 186.623Q310.76 195.735 318.198 214.426Q325.637 233.116 325.637 260.918L325.637 380.87L286.025 380.87L286.025 263.15Q286.025 246.04 281.653 235.254Q277.284 224.375 268.45 219.075Q259.711 213.682 246.039 213.682Q235.347 213.682 226.049 217.308Q216.75 220.935 209.869 227.444Q202.988 233.86 199.176 242.414Q195.363 250.97 195.363 261.291L195.363 380.87L155.751 380.87L155.751 262.405Q155.751 246.785 151.195 235.998Q146.639 225.119 137.898 219.447Q129.157 213.682 116.511 213.682Q105.911 213.682 96.7053 217.308Q87.5928 220.935 80.7117 227.258Q73.9239 233.488 70.1113 242.043Q66.2991 250.596 66.2991 260.546L66.2991 380.87L26.6869 380.87ZM471.477 384.684Q440.701 384.684 416.895 371.572Q393.091 358.368 379.514 335.587Q366.03 312.711 366.03 282.956Q366.03 259.337 373.654 239.996Q381.281 220.563 394.765 206.243Q408.34 191.923 427.122 184.112Q445.999 176.301 468.129 176.301Q487.471 176.301 504.207 183.74Q521.039 191.179 533.407 204.197Q545.772 217.122 552.468 234.883Q559.163 252.55 558.699 273.472L558.327 290.209L394.951 290.209L386.21 258.966L524.48 258.966L518.713 265.474L518.713 256.361Q517.599 243.717 510.344 233.86Q503.091 223.91 492.028 218.238Q481.056 212.566 468.129 212.566Q447.487 212.566 433.353 220.377Q419.312 228.094 412.059 243.157Q404.899 258.223 404.899 280.352Q404.899 301.273 413.64 316.71Q422.381 332.145 438.375 340.515Q454.369 348.882 475.289 348.882Q490.168 348.882 502.905 343.955Q515.739 338.934 530.523 326.008L550.329 353.812Q541.217 362.924 528.011 369.806Q514.901 376.686 500.212 380.685Q485.611 384.684 471.477 384.684ZM684.811 384.684Q657.379 384.684 635.808 371.201Q614.326 357.623 601.775 334.192Q589.22 310.759 589.22 280.725Q589.22 250.596 601.59 227.165Q613.955 203.732 635.249 190.249Q656.636 176.766 683.695 176.766Q698.479 176.766 712.335 181.509Q726.281 186.251 737.348 194.434Q748.413 202.616 754.644 212.38Q760.966 222.05 760.966 231.907L749.527 232.744L749.527 99.0301L788.768 99.0301L788.768 380.87L749.527 380.87L749.527 333.262L757.154 333.262Q757.154 342.374 751.016 351.393Q744.972 360.32 734.836 367.945Q724.793 375.569 711.592 380.128Q698.479 384.684 684.811 384.684ZM690.109 350.744Q708.056 350.744 721.726 341.631Q735.488 332.519 743.298 316.71Q751.108 300.902 751.108 280.725Q751.108 260.546 743.298 244.738Q735.488 228.931 721.726 219.819Q708.056 210.613 690.109 210.613Q672.256 210.613 658.496 219.819Q644.828 228.931 637.016 244.738Q629.206 260.546 629.206 280.725Q629.206 300.902 637.016 316.71Q644.828 332.519 658.496 341.631Q672.256 350.744 690.109 350.744ZM843.617 380.87L843.617 99.0301L882.857 99.0301L882.857 380.87L843.617 380.87ZM944.982 380.87L944.982 180.951L984.128 180.951L984.128 380.87L944.982 380.87ZM963.95 136.689Q951.397 136.689 944.518 130.273Q937.729 123.764 937.729 111.955Q937.729 100.89 944.704 94.1017Q951.771 87.2207 963.95 87.2207Q976.596 87.2207 983.385 93.7298Q990.264 100.146 990.264 111.955Q990.264 123.02 983.199 129.901Q976.132 136.689 963.95 136.689ZM1149.43 384.684Q1136.5 384.684 1123.76 380.499Q1111.03 376.314 1100.52 369.247Q1090.01 362.179 1082.95 353.626Q1075.97 345.071 1073.65 336.33L1083.59 330.936L1083.59 379.754L1044.36 379.754L1044.36 99.0301L1083.59 99.0301L1083.59 226.607L1077.46 223.166Q1079.41 214.426 1085.83 206.243Q1092.33 198.06 1102.38 191.458Q1112.51 184.763 1124.32 180.765Q1136.13 176.766 1148.31 176.766Q1175.37 176.766 1196.29 190.063Q1217.31 203.36 1229.49 226.793Q1241.67 250.225 1241.67 280.352Q1241.67 310.388 1229.67 334.004Q1217.68 357.623 1196.66 371.201Q1175.74 384.684 1149.43 384.684ZM1143.01 348.882Q1160.49 348.882 1174.16 339.955Q1187.92 330.936 1195.92 315.594Q1203.92 300.159 1203.92 280.352Q1203.92 260.918 1196.11 245.483Q1188.3 230.047 1174.53 221.307Q1160.86 212.566 1143.01 212.566Q1125.07 212.566 1111.3 221.307Q1097.64 230.047 1089.64 245.483Q1081.64 260.918 1081.64 280.352Q1081.64 300.159 1089.64 315.594Q1097.64 330.936 1111.3 339.955Q1125.07 348.882 1143.01 348.882ZM1284.3 380.87L1284.3 180.951L1323.91 180.951L1323.91 243.717L1320.1 228.559Q1324.29 214.054 1334.33 202.244Q1344.46 190.435 1357.57 183.647Q1370.78 176.766 1384.82 176.766Q1391.33 176.766 1397.19 177.882Q1403.14 178.998 1406.58 180.486L1396.26 223.166Q1391.7 221.307 1386.12 220.005Q1380.64 218.61 1375.34 218.61Q1365.02 218.61 1355.72 222.608Q1346.42 226.607 1339.35 233.674Q1332.28 240.741 1328.1 250.039Q1323.91 259.337 1323.91 270.404L1323.91 380.87L1284.3 380.87ZM1522.68 384.684Q1491.9 384.684 1468.1 371.572Q1444.29 358.368 1430.72 335.587Q1417.23 312.711 1417.23 282.956Q1417.23 259.337 1424.86 239.996Q1432.48 220.563 1445.97 206.243Q1459.54 191.923 1478.32 184.112Q1497.2 176.301 1519.33 176.301Q1538.67 176.301 1555.41 183.74Q1572.24 191.179 1584.61 204.197Q1596.98 217.122 1603.67 234.883Q1610.36 252.55 1609.9 273.472L1609.53 290.209L1446.15 290.209L1437.41 258.966L1575.68 258.966L1569.92 265.474L1569.92 256.361Q1568.8 243.717 1561.55 233.86Q1554.29 223.91 1543.23 218.238Q1532.26 212.566 1519.33 212.566Q1498.69 212.566 1484.56 220.377Q1470.51 228.094 1463.26 243.157Q1456.1 258.223 1456.1 280.352Q1456.1 301.273 1464.84 316.71Q1473.58 332.145 1489.58 340.515Q1505.57 348.882 1526.49 348.882Q1541.37 348.882 1554.11 343.955Q1566.94 338.934 1581.72 326.008L1601.53 353.812Q1592.42 362.924 1579.21 369.806Q1566.1 376.686 1551.41 380.685Q1536.81 384.684 1522.68 384.684ZM1668.6 385.055Q1656.05 385.055 1649.16 377.616Q1642.28 370.177 1642.28 356.509Q1642.28 343.955 1649.54 335.959Q1656.79 327.96 1668.6 327.96Q1681.15 327.96 1688.03 335.399Q1694.91 342.745 1694.91 356.509Q1694.91 369.061 1687.66 377.057Q1680.41 385.055 1668.6 385.055Z"/><path fill="#EDB92E" transform="scale(0.99999 1.00018)" d="M1768.68 117.389C1769.7 117.15 1772.69 117.322 1773.77 117.491C1777.76 118.087 1781.46 119.913 1784.36 122.712C1787.03 125.34 1791.82 132.178 1794.34 135.538L1813.28 160.764C1832.74 186.428 1852.07 212.197 1871.26 238.07C1890.89 211.557 1910.68 185.157 1930.61 158.871L1948.16 135.477C1951.33 131.273 1954.73 126.474 1958.35 122.69C1961.92 118.957 1966.94 117.264 1972.09 117.338C1977.42 117.405 1982.51 119.578 1986.25 123.382C1993.25 130.621 1992.07 138.876 1992.09 148.132L1992.09 170.942L1992.08 212.913C1992.09 221.851 1992.34 231.13 1991.84 240.035C1991.28 250.157 1981.66 258.475 1971.55 258.175C1966.01 258.003 1960.76 255.628 1956.98 251.577C1951.19 245.308 1951.63 237.493 1951.72 229.582C1951.76 226.129 1951.78 222.676 1951.78 219.222C1951.79 212.378 1951.53 204.461 1951.8 197.759C1950.2 199.761 1948.37 202.406 1946.8 204.529C1944.25 207.968 1941.68 211.39 1939.08 214.794L1903.25 262.542L1893.45 275.62C1890.66 279.34 1886.65 285.165 1883.07 287.835C1878.89 290.911 1873.66 292.222 1868.52 291.484C1862.27 290.567 1857.94 287.404 1854.23 282.483C1851.68 279.106 1849.15 275.715 1846.63 272.322L1832.14 252.957C1827.63 247.492 1822.43 240.042 1818.07 234.223L1790.67 197.647L1790.68 318.637C1793.95 318.357 1798.84 318.503 1802.2 318.507L1821.36 318.508L1883.12 318.506L1943.05 318.509L1961.79 318.505C1965.61 318.505 1970.18 318.39 1973.93 318.733C1977.37 319.027 1980.67 320.233 1983.48 322.227C1988 325.43 1990.84 330.201 1991.71 335.65C1992.55 340.993 1991.2 346.448 1987.96 350.776C1981.41 359.677 1972.42 358.913 1962.58 358.889L1946.49 358.89L1888.27 358.902L1808.98 358.902L1784.27 358.894C1779.13 358.894 1774.04 359.002 1768.87 358.675C1759.97 358.169 1751.92 350.625 1750.81 341.803C1750.34 338.022 1750.48 333.666 1750.46 329.807L1750.44 311.121L1750.43 248.375L1750.43 172.381L1750.41 149.242C1750.4 144.823 1750.18 140.145 1750.53 135.758C1751.37 125.423 1758.76 118.712 1768.68 117.389Z"/></svg>