<?xml version="1.0" encoding="utf-8" ?><svg xmlns="http://www.w3.org/2000/svg" xmlns:xlink="http://www.w3.org/1999/xlink" width="2123" height="570" viewBox="0 0 2123 570"><path fill="#EDB92E" transform="scale(2.84927 2.84988)" d="M38.7412 27.9896C39.3463 27.8476 41.1262 27.95 41.771 28.0504C44.1407 28.4049 46.3406 29.4905 48.0638 31.1553C49.6528 32.718 52.5024 36.7843 54.0035 38.7822L65.2626 53.7832C76.8383 69.0443 88.3313 84.3679 99.7414 99.7533C111.416 83.9875 123.18 68.2887 135.035 52.6574L145.468 38.7459C147.354 36.246 149.378 33.3922 151.529 31.1421C153.652 28.9221 156.636 27.9158 159.7 27.9594C162.871 27.9995 165.897 29.2914 168.12 31.5535C172.282 35.8584 171.585 40.767 171.595 46.2711L171.595 59.8357L171.587 84.794C171.594 90.1087 171.741 95.6264 171.447 100.922C171.114 106.941 165.389 111.888 159.377 111.709C156.083 111.607 152.966 110.194 150.717 107.785C147.274 104.058 147.534 99.4105 147.588 94.7062C147.612 92.6528 147.625 90.5992 147.625 88.5456C147.632 84.4756 147.474 79.7679 147.635 75.7823C146.684 76.9731 145.595 78.5455 144.664 79.808C143.147 81.8532 141.617 83.8881 140.072 85.9123L118.765 114.306L112.938 122.083C111.278 124.295 108.896 127.759 106.764 129.346C104.276 131.176 101.169 131.955 98.1127 131.517C94.393 130.971 91.8228 129.09 89.6143 126.164C88.099 124.156 86.5945 122.139 85.0934 120.122L76.4775 108.606C73.7988 105.357 70.702 100.926 68.1128 97.4658L51.8171 75.7158L51.8225 147.663C53.769 147.497 56.6787 147.583 58.6756 147.586L70.068 147.586L106.797 147.585L142.432 147.587L153.575 147.585C155.849 147.585 158.563 147.516 160.797 147.72C162.841 147.895 164.801 148.613 166.476 149.798C169.163 151.703 170.849 154.54 171.369 157.78C171.869 160.957 171.063 164.201 169.135 166.775C165.244 172.068 159.896 171.613 154.048 171.599L144.476 171.6L109.855 171.607L62.7064 171.607L48.0132 171.602C44.9546 171.602 41.9262 171.666 38.8531 171.472C33.5648 171.171 28.7758 166.685 28.1162 161.439C27.8336 159.19 27.9165 156.601 27.9095 154.306L27.8955 143.194L27.8871 105.881L27.8879 60.6912L27.8791 46.9313C27.8719 44.3038 27.7381 41.5216 27.9502 38.9131C28.4505 32.7675 32.8446 28.7766 38.7412 27.9896Z"/><path fill="#212329" transform="scale(2.84927 2.84988)" d="M223.703 161.602Q210.773 161.602 200.773 156.094Q190.773 150.547 185.07 140.977Q179.406 131.367 179.406 118.867Q179.406 108.945 182.609 100.82Q185.812 92.6562 191.477 86.6406Q197.18 80.625 205.07 77.3438Q213 74.0625 222.297 74.0625Q230.422 74.0625 237.453 77.1875Q244.523 80.3125 249.719 85.7812Q254.914 91.2109 257.727 98.6719Q260.539 106.094 260.344 114.883L260.188 121.914L191.555 121.914L187.883 108.789L245.969 108.789L243.547 111.523L243.547 107.695Q243.078 102.383 240.031 98.2422Q236.984 94.0625 232.336 91.6797Q227.727 89.2969 222.297 89.2969Q213.625 89.2969 207.688 92.5781Q201.789 95.8203 198.742 102.148Q195.734 108.477 195.734 117.773Q195.734 126.562 199.406 133.047Q203.078 139.531 209.797 143.047Q216.516 146.562 225.305 146.562Q231.555 146.562 236.906 144.492Q242.297 142.383 248.508 136.953L256.828 148.633Q253 152.461 247.453 155.352Q241.945 158.242 235.773 159.922Q229.641 161.602 223.703 161.602ZM313.323 161.602Q301.799 161.602 292.737 155.938Q283.713 150.234 278.44 140.391Q273.166 130.547 273.166 117.93Q273.166 105.273 278.362 95.4297Q283.557 85.5859 292.502 79.9219Q301.487 74.2578 312.854 74.2578Q319.065 74.2578 324.885 76.25Q330.744 78.2422 335.393 81.6797Q340.041 85.1172 342.658 89.2188Q345.315 93.2812 345.315 97.4219L340.51 97.7734L340.51 41.6016L356.994 41.6016L356.994 160L340.51 160L340.51 140L343.713 140Q343.713 143.828 341.135 147.617Q338.596 151.367 334.338 154.57Q330.119 157.773 324.573 159.688Q319.065 161.602 313.323 161.602ZM315.549 147.344Q323.088 147.344 328.83 143.516Q334.612 139.688 337.893 133.047Q341.174 126.406 341.174 117.93Q341.174 109.453 337.893 102.812Q334.612 96.1719 328.83 92.3438Q323.088 88.4766 315.549 88.4766Q308.049 88.4766 302.268 92.3438Q296.526 96.1719 293.244 102.812Q289.963 109.453 289.963 117.93Q289.963 126.406 293.244 133.047Q296.526 139.688 302.268 143.516Q308.049 147.344 315.549 147.344ZM380.036 160L380.036 41.6016L396.52 41.6016L396.52 160L380.036 160ZM422.618 160L422.618 76.0156L439.063 76.0156L439.063 160L422.618 160ZM430.587 57.4219Q425.313 57.4219 422.423 54.7266Q419.571 51.9922 419.571 47.0312Q419.571 42.3828 422.501 39.5312Q425.469 36.6406 430.587 36.6406Q435.899 36.6406 438.751 39.375Q441.641 42.0703 441.641 47.0312Q441.641 51.6797 438.673 54.5703Q435.704 57.4219 430.587 57.4219ZM508.504 161.602Q503.075 161.602 497.723 159.844Q492.371 158.086 487.957 155.117Q483.543 152.148 480.575 148.555Q477.645 144.961 476.668 141.289L480.848 139.023L480.848 159.531L464.364 159.531L464.364 41.6016L480.848 41.6016L480.848 95.1953L478.27 93.75Q479.09 90.0781 481.785 86.6406Q484.52 83.2031 488.739 80.4297Q492.996 77.6172 497.957 75.9375Q502.918 74.2578 508.035 74.2578Q519.403 74.2578 528.192 79.8438Q537.02 85.4297 542.137 95.2734Q547.254 105.117 547.254 117.773Q547.254 130.391 542.215 140.312Q537.176 150.234 528.348 155.938Q519.559 161.602 508.504 161.602ZM505.809 146.562Q513.153 146.562 518.895 142.812Q524.676 139.023 528.035 132.578Q531.395 126.094 531.395 117.773Q531.395 109.609 528.114 103.125Q524.832 96.6406 519.051 92.9688Q513.309 89.2969 505.809 89.2969Q498.27 89.2969 492.489 92.9688Q486.746 96.6406 483.387 103.125Q480.028 109.609 480.028 117.773Q480.028 126.094 483.387 132.578Q486.746 139.023 492.489 142.812Q498.27 146.562 505.809 146.562ZM565.164 160L565.164 76.0156L581.804 76.0156L581.804 102.383L580.203 96.0156Q581.961 89.9219 586.179 84.9609Q590.437 80 595.945 77.1484Q601.492 74.2578 607.39 74.2578Q610.125 74.2578 612.586 74.7266Q615.086 75.1953 616.531 75.8203L612.195 93.75Q610.281 92.9688 607.937 92.4219Q605.632 91.8359 603.406 91.8359Q599.07 91.8359 595.164 93.5156Q591.257 95.1953 588.289 98.1641Q585.32 101.133 583.562 105.039Q581.804 108.945 581.804 113.594L581.804 160L565.164 160ZM665.303 161.602Q652.374 161.602 642.374 156.094Q632.374 150.547 626.671 140.977Q621.006 131.367 621.006 118.867Q621.006 108.945 624.21 100.82Q627.413 92.6562 633.077 86.6406Q638.78 80.625 646.671 77.3438Q654.6 74.0625 663.897 74.0625Q672.022 74.0625 679.053 77.1875Q686.124 80.3125 691.319 85.7812Q696.514 91.2109 699.327 98.6719Q702.139 106.094 701.944 114.883L701.788 121.914L633.155 121.914L629.483 108.789L687.569 108.789L685.147 111.523L685.147 107.695Q684.678 102.383 681.631 98.2422Q678.585 94.0625 673.936 91.6797Q669.327 89.2969 663.897 89.2969Q655.225 89.2969 649.288 92.5781Q643.389 95.8203 640.342 102.148Q637.335 108.477 637.335 117.773Q637.335 126.562 641.006 133.047Q644.678 139.531 651.397 143.047Q658.116 146.562 666.905 146.562Q673.155 146.562 678.506 144.492Q683.897 142.383 690.108 136.953L698.428 148.633Q694.6 152.461 689.053 155.352Q683.546 158.242 677.374 159.922Q671.241 161.602 665.303 161.602ZM726.602 161.758Q721.329 161.758 718.438 158.633Q715.548 155.508 715.548 149.766Q715.548 144.492 718.595 141.133Q721.642 137.773 726.602 137.773Q731.876 137.773 734.767 140.898Q737.657 143.984 737.657 149.766Q737.657 155.039 734.61 158.398Q731.563 161.758 726.602 161.758Z"/></svg>